# xmcd CD database file
#
# Track frame offsets:
#	187
#	20787
#	41742
#
# Disc length: 828 seconds
#
# Revision: 0
# Processed by: cddbd v1.5.1PL0 Copyright (c) Steve Scherf et al.
# Submitted via: CDex 1.51
#
DISCID=22033a03
DTITLE=Gerard - 世界中をこの手で動かせるとしても
DYEAR=1995
DGENRE=Progressive Rock
TTITLE0=世界中をこの手で動かせるとしても
TTITLE1=Don't Let Me Down
TTITLE2=世界中をこの手で動かせるとしても (Vocalless)
EXTD=YEAR: 1995
EXTT0=
EXTT1=
EXTT2=
PLAYORDER=
